<svg xmlns="http://www.w3.org/2000/svg" viewBox="0 0 220 220"><defs><linearGradient id="b" x2="0" y2="1"><stop stop-color="#1b5360"/><stop offset="1" stop-color="#071b25"/></linearGradient><linearGradient id="c" x2="0" y2="1"><stop stop-color="#9d2e28"/><stop offset="1" stop-color="#471713"/></linearGradient></defs><rect width="220" height="220" fill="url(#b)"/><circle cx="176" cy="42" r="28" fill="#efd47b" opacity=".35"/><path d="M0 178c43-31 72-25 108-19 44 7 70-7 112-35v96H0z" fill="#0b3038"/><path d="M55 219c4-52 25-77 56-77s52 25 56 77" fill="#2b1a18"/><path d="M79 89c0-37 14-58 35-58 25 0 40 22 40 60 0 46-20 70-39 70-20 0-36-27-36-72z" fill="#bb7a55"/><path d="M76 68c9-35 28-48 54-44 21 3 34 17 40 38-24-8-48-10-94 6z" fill="#1c1715"/><path d="M72 55c22-22 67-26 91-5l-7 22c-31-11-54-10-79-2z" fill="#8c1f1e"/><path d="M73 56c22 8 57 5 88-6" fill="none" stroke="#d9a43d" stroke-width="5"/><circle cx="98" cy="93" r="4"/><circle cx="132" cy="93" r="4"/><path d="M95 118c14 8 26 8 40 0" fill="none" stroke="#43251f" stroke-width="4" stroke-linecap="round"/><path d="M82 124c12 36 54 42 68-2-10 17-20 22-34 22-16 0-24-7-34-20z" fill="#3e251e"/><path d="M83 82l19-5M126 77l18 6" stroke="#4c2a22" stroke-width="4" stroke-linecap="round"/><path d="M147 95l16 9-13 8" fill="#d6a033"/><circle cx="159" cy="105" r="7" fill="none" stroke="#d6a033" stroke-width="3"/><path d="M84 166l-18 53h101l-24-53-28 20z" fill="url(#c)"/><path d="M88 169l27 17 27-18" fill="none" stroke="#d3aa58" stroke-width="4"/></svg>